<svg xmlns="http://www.w3.org/2000/svg" width="46" height="46" viewBox="0 0 46 46">
  <g fill="none" fill-rule="evenodd">
    <path fill="#FFF" d="M23 45c12.15 0 22-9.85 22-22S35.15 1 23 1 1 10.85 1 23s9.85 22 22 22z"/>
    <path fill="#4285F4" d="M32.87 24.5c0-.83-.07-1.44-.22-2.07H23v3.77h5.61c-.11.92-.7 2.3-2.01 3.23l-.02.13 2.92 2.27.2.02c1.84-1.7 2.97-4.2 2.97-7.35z"/>
    <path fill="#34A853" d="M23 33c2.7 0 4.97-.9 6.63-2.44l-3.16-2.46c-.85.6-2.01 1.02-3.47 1.02-2.66 0-4.92-1.8-5.73-4.23l-.12.01-3.09 2.4-.04.11C16.75 30.98 19.67 33 23 33z"/>
    <path fill="#FBBC05" d="M17.27 24.89A5.42 5.42 0 0 1 16.96 23c0-.66.12-1.3.3-1.89l-.01-.13-3.13-2.43-.1.05A9.98 9.98 0 0 0 13 23c0 1.56.37 3.04 1.02 4.34l3.25-2.45z"/>
    <path fill="#EA4335" d="M23 17.44c1.87 0 3.13.8 3.85 1.47l2.81-2.74C28.95 14.9 25.7 13 23 13c-3.33 0-6.25 2.02-7.87 4.96l3.25 2.45c.81-2.43 3.07-4.23 5.73-4.23z"/>
  </g>
</svg>
